<?xml version="1.0" encoding="UTF-8" standalone="no"?>
<svg
   clip-rule="evenodd"
   fill-rule="evenodd"
   stroke-linejoin="round"
   stroke-miterlimit="2"
   viewBox="0 0 16 16"
   version="1.1"
   id="svg1"
   width="16"
   height="16"
   xmlns="http://www.w3.org/2000/svg"
   xmlns:svg="http://www.w3.org/2000/svg">
  <defs
     id="defs1" />
  <path
     id="path1"
     style="stroke-width:0.7;fill:#8da5f3;fill-opacity:1"
     d="M 5.390625 1 C 5.204425 1 5.0254312 1.0734781 4.8945312 1.2050781 L 1.2050781 4.8945312 C 1.0734781 5.0254312 1 5.204425 1 5.390625 L 1 10.609375 C 1 10.795575 1.0734781 10.974569 1.2050781 11.105469 L 4.8945312 14.794922 C 5.0254312 14.926522 5.204425 15 5.390625 15 L 10.609375 15 C 10.795575 15 10.974569 14.926522 11.105469 14.794922 L 14.794922 11.105469 C 14.926522 10.974569 15 10.795575 15 10.609375 L 15 5.390625 C 15 5.204425 14.926522 5.0254312 14.794922 4.8945312 L 11.105469 1.2050781 C 10.974569 1.0734781 10.795575 1 10.609375 1 L 5.390625 1 z M 6.3261719 3.9628906 L 9.6738281 3.9628906 L 12.037109 6.3261719 L 12.037109 9.6738281 L 9.6738281 12.037109 L 6.3261719 12.037109 L 3.9628906 9.6738281 L 3.9628906 6.3261719 L 6.3261719 3.9628906 z " />
</svg>
