<?xml version="1.0" encoding="UTF-8" standalone="no"?>
<svg
   width="16"
   height="16"
   viewBox="0 0 16 16"
   version="1.1"
   id="svg14"
   xmlns="http://www.w3.org/2000/svg"
   xmlns:svg="http://www.w3.org/2000/svg"
   xmlns:rdf="http://www.w3.org/1999/02/22-rdf-syntax-ns#"
   xmlns:cc="http://creativecommons.org/ns#"
   xmlns:dc="http://purl.org/dc/elements/1.1/">
  <metadata
     id="metadata20">
    <rdf:RDF>
      <cc:Work
         rdf:about="">
        <dc:format>image/svg+xml</dc:format>
        <dc:type
           rdf:resource="http://purl.org/dc/dcmitype/StillImage" />
      </cc:Work>
    </rdf:RDF>
  </metadata>
  <defs
     id="defs18" />
  <path
     d="m 5.666667,7.0624992 c 0,0.5168751 -0.392584,0.9375001 -0.875,0.9375001 -0.482417,0 -0.875,-0.420625 -0.875,-0.9375001 0,-0.5168749 0.392583,-0.9374999 0.875,-0.9374999 0.482416,0 0.875,0.420625 0.875,0.9374999 z M 15,10.9475 c 0,0.991875 -0.326667,1.619375 -1.02025,1.986875 C 13.89633,12.978751 13.807083,13 13.717833,13 c -0.141166,0 -0.281166,-0.05437 -0.392,-0.159375 L 11.51225,11.125 c -0.3255,-0.30875 -0.609,-0.6275 -1.402333,-0.6275 h -4.21925 c -0.793334,0 -1.077417,0.31875 -1.402334,0.6275 L 2.674167,12.840625 C 2.5645,12.945625 2.423917,13 2.282167,13 2.193497,13 2.103083,12.97875 2.02025,12.934376 1.326667,12.566876 1,11.939376 1,10.948126 1,9.6593756 1.55125,7.5350002 2.563917,4.7875 3.043417,3.485625 3.900917,3 4.719333,3 5.102,3 5.4765,3.10625 5.80025,3.285 c 1.414,0.7806251 3.015833,0.764375 4.400667,0 C 10.5235,3.10625 10.898,3 11.280667,3 c 0.818416,0 1.6765,0.485625 2.156,1.7875 C 14.44875,7.5343752 15,9.6587506 15,10.9475 Z M 6.25,7.0624992 c 0,-0.863125 -0.65275,-1.5625001 -1.458333,-1.5625001 -0.805584,0 -1.458334,0.6993751 -1.458334,1.5625001 0,0.863125 0.65275,1.5625 1.458334,1.5625 0.805583,0 1.458333,-0.699375 1.458333,-1.5625 z M 8.583333,5.4999991 c 0,-0.345 -0.26075,-0.6249999 -0.583333,-0.6249999 -0.322583,0 -0.583333,0.2799999 -0.583333,0.6249999 0,0.345 0.26075,0.6250002 0.583333,0.6250002 0.322583,0 0.583333,-0.2800002 0.583333,-0.6250002 z M 10.625,7.0624992 c 0,-0.259375 -0.196,-0.46875 -0.4375,-0.46875 -0.2415,0 -0.4375,0.209375 -0.4375,0.46875 0,0.2593749 0.196,0.4687501 0.4375,0.4687501 0.2415,0 0.4375,-0.2093752 0.4375,-0.4687501 z m 1.020833,1.09375 c 0,-0.2593749 -0.196,-0.46875 -0.4375,-0.46875 -0.2415,0 -0.4375,0.2093751 -0.4375,0.46875 0,0.2593751 0.196,0.46875 0.4375,0.46875 0.2415,0 0.4375,-0.2093749 0.4375,-0.46875 z m 0,-2.2068749 c 0,-0.2593751 -0.196,-0.4687501 -0.4375,-0.4687501 -0.2415,0 -0.4375,0.209375 -0.4375,0.4687501 0,0.2593749 0.196,0.46875 0.4375,0.46875 0.2415,0 0.4375,-0.21 0.4375,-0.46875 z m 1.0115,1.1131249 c 0,-0.259375 -0.196,-0.46875 -0.4375,-0.46875 -0.2415,0 -0.4375,0.209375 -0.4375,0.46875 0,0.2593749 0.196,0.4687501 0.4375,0.4687501 0.2415,0 0.4375,-0.2093752 0.4375,-0.4687501 z"
     id="path2"
     style="fill:#c38ef1;fill-opacity:1;stroke-width:1" />
</svg>
