<?xml version="1.0" encoding="UTF-8" standalone="no"?>
<svg
   width="16"
   height="16"
   viewBox="0 0 16 16"
   version="1.1"
   id="svg4"
   sodipodi:docname="Debug.svg"
   inkscape:version="1.3 (0e150ed6c4, 2023-07-21)"
   xmlns:inkscape="http://www.inkscape.org/namespaces/inkscape"
   xmlns:sodipodi="http://sodipodi.sourceforge.net/DTD/sodipodi-0.dtd"
   xmlns="http://www.w3.org/2000/svg"
   xmlns:svg="http://www.w3.org/2000/svg">
  <defs
     id="defs8" />
  <sodipodi:namedview
     id="namedview6"
     pagecolor="#505050"
     bordercolor="#eeeeee"
     borderopacity="1"
     inkscape:pageshadow="0"
     inkscape:pageopacity="0"
     inkscape:pagecheckerboard="0"
     showgrid="false"
     inkscape:zoom="6.7083333"
     inkscape:cx="11.403727"
     inkscape:cy="13.937888"
     inkscape:window-width="1920"
     inkscape:window-height="1009"
     inkscape:window-x="-8"
     inkscape:window-y="-8"
     inkscape:window-maximized="1"
     inkscape:current-layer="svg4"
     inkscape:showpageshadow="0"
     inkscape:deskcolor="#505050" />
  <path
     d="M 5.1266719,1.8213333 C 5.1266719,1.3675 5.5006042,1 5.9614567,1 6.5109796,1 6.9099962,1.5150833 6.7664903,2.036 6.7128214,2.232 6.7419892,2.4414167 6.847577,2.6164167 7.08092,3.00375 7.4799367,3.2423333 8.000875,3.24525 8.5148131,3.2429167 8.9179132,3.00725 9.1541731,2.6164167 9.2597608,2.442 9.2883453,2.2325833 9.2352598,2.036 9.0905871,1.5156667 9.488437,1 10.039127,1 c 0.460852,0 0.834784,0.3675 0.834784,0.8213333 0,0.39375 -0.281178,0.7198334 -0.65161,0.8020834 -0.187841,0.041417 -0.3500147,0.1569166 -0.4491855,0.3196666 -0.3575982,0.59325 0.1125881,1.11825 0.5431055,1.64675 -0.7064456,0.3278334 -1.4729775,0.4935 -2.3159293,0.4935 -0.856369,0 -1.616484,-0.1615833 -2.3188466,-0.49 C 6.1177966,4.0566667 6.5885662,3.5415833 6.2274678,2.9425 6.128297,2.77975 5.9667069,2.66425 5.7782824,2.6228333 5.4084337,2.5411667 5.1266719,2.2150833 5.1266719,1.8213333 Z m 7.1210471,8.8549997 c -0.06067,0.37625 0.157506,0.677834 0.445685,0.80675 l 1.411725,0.628834 c 0.309763,0.137666 0.446852,0.496416 0.306846,0.800916 C 14.271386,13.2185 13.906788,13.3515 13.598192,13.215 L 12.104213,12.55 C 11.905288,12.46133 11.692362,12.51383 11.541856,12.762333 10.921747,13.789 9.7112796,14.80925 8.0002917,15 6.255469,14.80575 5.0304179,13.748167 4.4213926,12.699917 4.304721,12.500417 4.0923788,12.461333 3.8957873,12.548833 l -1.4939789,0.665 c -0.311513,0.13825 -0.6737781,0.0012 -0.8137839,-0.302166 -0.1394225,-0.3045 -0.00292,-0.66325 0.3068461,-0.800917 L 3.3065961,11.481917 C 3.6116922,11.346 3.8100338,11.05375 3.7446977,10.629083 3.6828618,10.2295 3.3410142,10.0125 3.0067503,10.0125 H 1.6154423 C 1.2753448,10.013667 1,9.743 1,9.40875 1,9.0745 1.2753448,8.8038333 1.6154423,8.8038333 h 1.4012251 c 0.3220134,0 0.6586107,-0.2059166 0.7198633,-0.6480833 C 3.7843657,7.8174167 3.5749406,7.5245833 3.2855952,7.4125833 L 1.9847077,6.9074167 C 1.6685279,6.7849167 1.5133547,6.4331667 1.6381933,6.12225 1.7618651,5.8130833 2.1177132,5.6579167 2.4356432,5.7815833 c 0.1347556,0.0525 1.36039,0.5506667 1.5003958,0.5506667 0.1411726,0 0.2928455,-0.072917 0.3867661,-0.2864167 0.1055877,-0.238 0.2240094,-0.4590833 0.350598,-0.6685 C 5.6703613,5.9595 6.767657,6.25 8.0002917,6.25 c 1.2133839,0 2.3252633,-0.2975 3.3245553,-0.8761667 0.131255,0.217 0.254344,0.44625 0.361682,0.693 0.08167,0.1860834 0.229843,0.2648334 0.378015,0.2648334 0.22751,0 1.436227,-0.5926667 1.725572,-0.5926667 0.24501,0 0.476603,0.14525 0.571691,0.38325 0.124838,0.3109167 -0.03092,0.6620833 -0.346515,0.7851667 l -1.300887,0.5051666 c -0.279429,0.1085 -0.499938,0.3820834 -0.446852,0.7775834 0.0525,0.3844166 0.380349,0.6136666 0.71578,0.6136666 h 1.401225 C 14.724655,8.8038333 15,9.0745 15,9.40875 15,9.743 14.724655,10.013667 14.384558,10.013667 h -1.392475 c -0.32493,0 -0.668528,0.193666 -0.744364,0.662666 z M 7.416934,13.690417 V 7.3915833 C 6.6259011,7.3373333 5.8698696,7.1769167 5.1581733,6.9021667 4.4307263,8.5139167 4.4149756,12.768167 7.416934,13.690417 Z M 10.834827,6.89925 C 10.120797,7.1751667 9.3670986,7.3361667 8.5836493,7.391 v 6.299417 C 11.55469,12.778083 11.589108,8.6060833 10.834827,6.89925 Z"
     id="path2"
     style="fill:#e0e0e0;fill-opacity:1;stroke-width:0.583346" />
</svg>
