<?xml version="1.0" encoding="UTF-8" standalone="no"?>
<svg
   width="16"
   height="16"
   viewBox="0 0 16 16"
   version="1.1"
   id="svg14"
   xmlns="http://www.w3.org/2000/svg"
   xmlns:svg="http://www.w3.org/2000/svg"
   xmlns:rdf="http://www.w3.org/1999/02/22-rdf-syntax-ns#"
   xmlns:cc="http://creativecommons.org/ns#"
   xmlns:dc="http://purl.org/dc/elements/1.1/">
  <metadata
     id="metadata20">
    <rdf:RDF>
      <cc:Work
         rdf:about="">
        <dc:format>image/svg+xml</dc:format>
        <dc:type
           rdf:resource="http://purl.org/dc/dcmitype/StillImage" />
      </cc:Work>
    </rdf:RDF>
  </metadata>
  <defs
     id="defs18" />
  <path
     d="m 14.492667,6.7853845 c -0.898,-0.3 -1.256667,-0.4138461 -2.368,-0.7084615 0,0 -1.586,-1.8146153 -1.888,-2.1661538 C 9.858,3.4707693 9.541333,3 8.270667,3 H 3.008 C 2.667333,3 2.517333,3.4207693 2.96133,3.7692308 2.466667,4.2323077 1.882,4.8307692 1.456,5.3284615 0.499333,6.4476922 0,7.1630768 0,8.6015383 0,9.9553843 0.694667,11.461539 2.116,11.461539 H 2.1227 C 2.398,12.355385 3.130667,13.000001 4,13.000001 c 0.869333,0 1.602,-0.644616 1.877333,-1.538462 H 10.122 C 10.397333,12.355385 11.13,13 11.999333,13 c 0.869334,0 1.602,-0.644615 1.877334,-1.538461 h 0.456666 C 15.662667,11.461539 16,10.095384 16,9.0269229 16,7.456923 15.251333,7.0392307 14.492667,6.7853845 Z M 4,11.615384 c -0.441333,0 -0.8,-0.413845 -0.8,-0.923076 0,-0.509231 0.358667,-0.9230775 0.8,-0.9230775 0.441333,0 0.8,0.4138465 0.8,0.9230775 0,0.509231 -0.358667,0.923076 -0.8,0.923076 z M 6.384,6.8461537 c -0.714,0 -2.333333,-0.081539 -3.479333,-0.5769231 C 3.29,5.6923076 3.57,5.3292307 3.751333,5.0876922 3.963333,4.8046154 4.333333,4.5384615 4.792,4.5384615 H 6.384 Z M 7.050667,4.5384615 H 8.274 c 0.588,0 0.952,0.3792308 1.348,0.85 0.301333,0.3584615 1.154667,1.4576922 1.154667,1.4576922 H 7.051333 V 4.5384615 Z M 12,11.615384 c -0.441333,0 -0.8,-0.413845 -0.8,-0.923076 0,-0.509231 0.358667,-0.9230775 0.8,-0.9230775 0.441333,0 0.8,0.4138465 0.8,0.9230775 0,0.509231 -0.358667,0.923076 -0.8,0.923076 z"
     id="path1"
     style="fill:#e0e0e0;fill-opacity:1;stroke-width:1" />
</svg>
