<?xml version="1.0" encoding="UTF-8" standalone="no"?>
<svg
   width="16"
   height="16"
   viewBox="0 0 16 16"
   version="1.1"
   id="svg4"
   sodipodi:docname="Entity.svg"
   inkscape:version="1.4 (86a8ad7, 2024-10-11)"
   xmlns:inkscape="http://www.inkscape.org/namespaces/inkscape"
   xmlns:sodipodi="http://sodipodi.sourceforge.net/DTD/sodipodi-0.dtd"
   xmlns="http://www.w3.org/2000/svg"
   xmlns:svg="http://www.w3.org/2000/svg">
  <defs
     id="defs8" />
  <sodipodi:namedview
     id="namedview6"
     pagecolor="#505050"
     bordercolor="#eeeeee"
     borderopacity="1"
     inkscape:pageshadow="0"
     inkscape:pageopacity="0"
     inkscape:pagecheckerboard="0"
     showgrid="false"
     inkscape:zoom="8"
     inkscape:cx="3.375"
     inkscape:cy="14.6875"
     inkscape:window-width="1920"
     inkscape:window-height="1009"
     inkscape:window-x="-8"
     inkscape:window-y="-8"
     inkscape:window-maximized="1"
     inkscape:current-layer="svg4"
     inkscape:showpageshadow="0"
     inkscape:deskcolor="#505050" />
  <path
     id="path1"
     style="fill:#e0e0e0;fill-opacity:1;stroke:none;stroke-width:2;stroke-linejoin:round"
     d="M 8 1 C 4.134136 1.0000028 1.000185 3.9598069 1 7.6113281 L 1 12.798828 C 0.999978 14.014144 1.7902 14.999584 2.765625 15 C 3.741688 15.00071 4.5332241 14.61455 4.5332031 13.398438 C 4.5333491 12.467019 4.9136725 12.088689 5.3828125 12.087891 C 5.8525915 12.086893 6.234228 12.46575 6.234375 13.398438 C 6.234353 14.613754 7.024576 14.999584 8 15 C 8.975425 14.999584 9.765647 14.613754 9.765625 13.398438 C 9.765772 12.465749 10.147407 12.086896 10.617188 12.087891 C 11.086327 12.088675 11.466651 12.467019 11.466797 13.398438 C 11.466775 14.614549 12.25831 15.00071 13.234375 15 C 14.209799 14.999584 15.000022 14.014144 15 12.798828 L 15 7.6113281 C 14.999815 3.959807 11.865863 1.0000031 8 1 z M 5.5917969 3.8457031 A 1.5 1.5 0 0 1 7.0917969 5.3457031 A 1.5 1.5 0 0 1 5.5917969 6.8457031 A 1.5 1.5 0 0 1 4.0917969 5.3457031 A 1.5 1.5 0 0 1 5.5917969 3.8457031 z M 10.408203 3.8457031 A 1.5 1.5 0 0 1 11.908203 5.3457031 A 1.5 1.5 0 0 1 10.408203 6.8457031 A 1.5 1.5 0 0 1 8.9082031 5.3457031 A 1.5 1.5 0 0 1 10.408203 3.8457031 z " />
</svg>
