<?xml version="1.0" encoding="UTF-8" standalone="no"?>
<svg
   width="16"
   height="16"
   viewBox="0 0 16 16"
   version="1.1"
   id="svg378"
   sodipodi:docname="Game.svg"
   inkscape:version="1.2.1 (9c6d41e410, 2022-07-14)"
   xmlns:inkscape="http://www.inkscape.org/namespaces/inkscape"
   xmlns:sodipodi="http://sodipodi.sourceforge.net/DTD/sodipodi-0.dtd"
   xmlns="http://www.w3.org/2000/svg"
   xmlns:svg="http://www.w3.org/2000/svg">
  <defs
     id="defs382" />
  <sodipodi:namedview
     id="namedview380"
     pagecolor="#505050"
     bordercolor="#eeeeee"
     borderopacity="1"
     inkscape:showpageshadow="0"
     inkscape:pageopacity="0"
     inkscape:pagecheckerboard="0"
     inkscape:deskcolor="#505050"
     showgrid="false"
     inkscape:zoom="17.4375"
     inkscape:cx="7.9713262"
     inkscape:cy="14.910394"
     inkscape:window-width="1920"
     inkscape:window-height="1017"
     inkscape:window-x="-8"
     inkscape:window-y="-8"
     inkscape:window-maximized="1"
     inkscape:current-layer="svg378" />
  <path
     d="m 6.25,1 v 4.725 c 0,0.4380833 0.1131666,0.8178333 0.32725,1.0984166 0.4789166,0.6276667 1.42625,0.62825 2.0784166,-0.026833 L 8.7985833,6.64725 C 9.0389166,6.3911666 9.1713333,6.25 9.5715,6.25 c 0.550083,0 1.345167,0.623 1.345167,1.75 0,1.127 -0.795084,1.75 -1.345167,1.75 C 9.17075,9.75 9.0389166,9.6088333 8.7985833,9.35275 L 8.6574166,9.2051666 c -0.329,-0.33075 -0.7245,-0.51275 -1.1135833,-0.51275 C 6.92025,8.6924166 6.25,9.1876666 6.25,10.275 V 15 H 3.9166667 C 2.3055,15 1,13.693917 1,12.083333 V 3.9166667 C 1,2.3060833 2.3055,1 3.9166667,1 Z m 1.1666666,0 v 4.725 c 0,0.4030833 0.18725,0.483 0.5308334,0.12425 0.2858333,-0.3050834 0.7186666,-0.7659167 1.624,-0.7659167 1.21275,0 2.511833,1.1719167 2.511833,2.9166667 0,1.74475 -1.299083,2.916667 -2.511833,2.916667 -0.9059167,0 -1.3381667,-0.460834 -1.624,-0.765917 C 7.5811666,9.7680833 7.4166666,9.9448333 7.4166666,10.275 V 15 H 12.083333 C 13.6945,15 15,13.693917 15,12.083333 V 3.9166667 C 15,2.3060833 13.6945,1 12.083333,1 Z"
     id="path376"
     style="fill:#e0e0e0;fill-opacity:1;stroke-width:1" />
</svg>
