<?xml version="1.0" encoding="UTF-8" standalone="no"?>
<svg
   width="16"
   height="16"
   fill-rule="evenodd"
   clip-rule="evenodd"
   version="1.1"
   id="svg1"
   sodipodi:docname="Intelligence.svg"
   inkscape:version="1.4.2 (f4327f4, 2025-05-13)"
   xmlns:inkscape="http://www.inkscape.org/namespaces/inkscape"
   xmlns:sodipodi="http://sodipodi.sourceforge.net/DTD/sodipodi-0.dtd"
   xmlns="http://www.w3.org/2000/svg"
   xmlns:svg="http://www.w3.org/2000/svg">
  <defs
     id="defs1" />
  <sodipodi:namedview
     id="namedview1"
     pagecolor="#505050"
     bordercolor="#eeeeee"
     borderopacity="1"
     inkscape:showpageshadow="0"
     inkscape:pageopacity="0"
     inkscape:pagecheckerboard="0"
     inkscape:deskcolor="#505050"
     inkscape:zoom="21.500466"
     inkscape:cx="3.5115519"
     inkscape:cy="10.162571"
     inkscape:window-width="1920"
     inkscape:window-height="1009"
     inkscape:window-x="-8"
     inkscape:window-y="-8"
     inkscape:window-maximized="1"
     inkscape:current-layer="svg1" />
  <path
     d="M 7.3379917,11.243539 C 6.0027547,11.755812 4.3210215,10.903085 3.9809415,9.4897221 2.3021248,9.4865403 1.0141375,8.5937223 1.0001376,7.0168138 0.9779712,4.4516328 3.634445,1.004452 8.0000685,0.99999751 12.366275,0.99554328 14.997665,4.3803601 14.999998,7.5729955 c 0.0023,3.1926355 -2.439475,4.3889985 -4.437372,3.9855445 -0.21233,0.958999 -0.09975,2.276908 0.135332,3.020817 L 9.4677206,14.999993 C 8.9934753,13.225812 8.1843999,11.839176 7.3379917,11.243539 Z M 6.934329,5.3406325 C 6.5312497,5.1408144 6.2500857,4.6966328 6.2500857,4.1818147 c 0,-0.7025452 0.5226616,-1.2727269 1.1666553,-1.2727269 0.6439935,0 1.166655,0.5701817 1.166655,1.2727269 0,0.1654544 -0.029166,0.323909 -0.081666,0.4696362 0.7081597,0.5797271 1.4029028,1.1804542 2.099396,1.7779994 0.247914,-0.211909 0.559994,-0.3385453 0.898908,-0.3385453 0.804991,0 1.458319,0.712727 1.458319,1.5909086 0,0.8781815 -0.653328,1.5909086 -1.458319,1.5909086 -0.683077,0 -1.257071,-0.5135453 -1.415153,-1.2059087 C 9.3843047,8.129177 8.6825617,8.1769043 7.9814019,8.2284497 7.8828197,8.8221768 7.4056577,9.2727222 6.8334133,9.2727222 c -0.6439936,0 -1.1666551,-0.5701816 -1.1666551,-1.2727269 0,-0.6573635 0.457912,-1.1989087 1.0441564,-1.2657269 C 6.7814972,6.2690868 6.8579131,5.8051778 6.934329,5.3406325 Z M 8.1359837,5.1840871 C 7.9627355,5.3317234 7.7504042,5.4278143 7.5188233,5.4494506 l -0.211748,1.3872723 c 0.2939971,0.1425454 0.5238282,0.4142727 0.6299938,0.7489998 l 2.1273959,-0.183909 c 0.02742,-0.1699091 0.07992,-0.3302726 0.152832,-0.4766362 z"
     id="path1"
     style="fill:#e0e0e0;fill-opacity:1;stroke-width:0.999999" />
</svg>
