<?xml version="1.0" encoding="UTF-8" standalone="no"?>
<svg
   width="16"
   height="16"
   fill-rule="evenodd"
   clip-rule="evenodd"
   version="1.1"
   id="svg1"
   xmlns="http://www.w3.org/2000/svg"
   xmlns:svg="http://www.w3.org/2000/svg">
  <defs
     id="defs1" />
  <path
     d="m 8,0 c 4.415333,0 8,3.5846667 8,8 0,4.415333 -3.584667,8 -8,8 C 3.5846667,16 0,12.415333 0,8 0,3.5846667 3.5846667,0 8,0 Z m 0,1.3333333 c 3.68,0 6.666667,2.9873334 6.666667,6.6666667 C 14.666667,11.68 11.68,14.666667 8,14.666667 4.3206667,14.666667 1.3333333,11.68 1.3333333,8 1.3333333,4.3206667 4.3206667,1.3333333 8,1.3333333 Z M 6.6666667,2.8346667 v 0.692 C 4.74,4.1013334 3.3333334,5.888 3.3333334,8 c 0,2.575333 2.0913333,4.666667 4.6666666,4.666667 1.288,0 2.454667,-0.522667 3.299333,-1.367334 L 11.77,11.77 c -0.965333,0.966 -2.2986666,1.563333 -3.77,1.563333 -2.944,0 -5.3333333,-2.39 -5.3333333,-5.333333 0,-2.4833333 1.7006667,-4.5726666 4,-5.1653333 z m 0,2.11 v 0.746 C 5.87,6.152 5.3333334,7.0133334 5.3333334,8 5.3333334,9.472 6.528,10.666667 8,10.666667 c 0.736,0 1.4026667,-0.298667 1.8853334,-0.7813336 L 10.356667,10.356667 C 9.7533334,10.959333 8.92,11.333333 8,11.333333 6.16,11.333333 4.6666667,9.84 4.6666667,8 c 0,-1.366 0.8233333,-2.5406666 2,-3.0553333 z M 7.3333334,6.8453334 V 2.6666667 C 7.3333334,2.49 7.4033334,2.32 7.5286667,2.1953333 7.6533334,2.07 7.8233334,2 8,2 8.1766667,2 8.3466667,2.07 8.4713334,2.1953333 8.5966667,2.32 8.6666667,2.49 8.6666667,2.6666667 V 6.8453334 C 9.0653334,7.076 9.3333334,7.5066667 9.3333334,8 9.3333334,8.736 8.736,9.3333334 8,9.3333334 7.264,9.3333334 6.6666667,8.736 6.6666667,8 c 0,-0.4933333 0.268,-0.924 0.6666667,-1.1546666 z"
     id="path1"
     style="fill:#8da5f3;fill-opacity:1;stroke-width:0.999996" />
</svg>
