<svg width="16" height="16" version="1.1" viewBox="0 0 16 16" xmlns="http://www.w3.org/2000/svg">
 <path d="m16 9.0773v-2.1547c-1.1007-0.39133-1.796-0.50133-2.146-1.346v-6.667e-4c-0.35133-0.84733 0.066667-1.4227 0.56467-2.4713l-1.5233-1.5233c-1.0407 0.49467-1.622 0.91667-2.4713 0.56467h-6.67e-4c-0.846-0.35067-0.95667-1.0507-1.346-2.146h-2.1547c-0.388 1.09-0.49933 1.7947-1.346 2.146h-6.667e-4c-0.84733 0.352-1.4213-0.065333-2.4713-0.56467l-1.5233 1.5233c0.49667 1.0453 0.91667 1.6227 0.56467 2.4713-0.35133 0.84733-1.056 0.95867-2.146 1.3467v2.1547c1.088 0.38667 1.7947 0.49933 2.146 1.346 0.35333 0.85467-0.076 1.444-0.56467 2.4713l1.5233 1.524c1.0413-0.49533 1.6227-0.91667 2.4713-0.56467h6.667e-4c0.84667 0.35067 0.95733 1.0527 1.346 2.146h2.1547c0.388-1.0907 0.5-1.7933 1.3513-2.148h6.66e-4c0.84133-0.34933 1.4133 0.06733 2.4653 0.56733l1.5233-1.524c-0.496-1.042-0.91667-1.622-0.56533-2.4707 0.35133-0.84733 1.0587-0.96 2.1473-1.3473zm-8 1.5893c-1.4727 0-2.6667-1.194-2.6667-2.6667 0-1.4727 1.194-2.6667 2.6667-2.6667 1.4727 0 2.6667 1.194 2.6667 2.6667 0 1.4727-1.194 2.6667-2.6667 2.6667z" fill="#e0e0e0"/>
</svg>
