<?xml version="1.0" encoding="UTF-8" standalone="no"?>
<svg
   width="16"
   height="16"
   viewBox="0 0 16 16"
   version="1.1"
   id="svg1"
   xmlns="http://www.w3.org/2000/svg"
   xmlns:svg="http://www.w3.org/2000/svg">
  <defs
     id="defs1" />
  <path
     d="M 4.4312265,14.26 1.2782724,16 1.0713939,15.298 C 0.92595673,14.802 1.0045083,14.275333 1.2907163,13.832 l 2.035343,-3.152667 C 3.6270443,11.746 3.985582,12.860667 4.4312265,14.26 Z M 14.709048,13.832 12.651151,10.642667 c -0.304096,1.104 -0.624525,2.146666 -1.064725,3.627333 L 14.72227,16 14.929148,15.298 c 0.14466,-0.495333 0.06611,-1.022 -0.2201,-1.466 z M 6.8748825,16 h 2.2515542 l 0.429312,-1.333333 H 6.4447928 Z M 8.0002709,0 C 5.2867394,1.6686667 4.1115757,3.6586667 4.1115757,6.1273333 4.1115757,8.354 5.0028647,10.977333 5.9625946,14 H 10.063613 C 10.982123,10.888 11.861746,8.282 11.888966,6.104 11.920076,3.6166667 10.768244,1.678 8.0002709,0 Z m 0.00933,1.6953333 C 9.0821027,2.496 9.7486257,3.356 10.079942,4.3593333 9.6459667,4.562 8.8301187,4.6666667 8.0002709,4.6666667 7.1922001,4.6666667 6.3887956,4.57 5.9462621,4.378 6.2900228,3.37 6.9604338,2.4953333 8.0096037,1.6953333 Z"
     id="path1"
     style="stroke-width:0.720064;fill:#8da5f3;fill-opacity:1" />
</svg>
