<?xml version="1.0" encoding="UTF-8" standalone="no"?>
<svg
   clip-rule="evenodd"
   fill-rule="evenodd"
   stroke-linejoin="round"
   stroke-miterlimit="2"
   viewBox="0 0 16 16"
   version="1.1"
   id="svg1"
   width="16"
   height="16"
   xmlns="http://www.w3.org/2000/svg"
   xmlns:svg="http://www.w3.org/2000/svg">
  <defs
     id="defs1" />
  <path
     d="M 11.85,7.25 C 13.5888,7.25 15,8.762 15,10.625 15,12.488 13.5888,14 11.85,14 10.1112,14 8.7,12.488 8.7,10.625 8.7,8.762 10.1112,7.25 11.85,7.25 Z M 8.1078,12.49925 C 8.0714,12.5 8.035,12.5 7.9986,12.5 5.144,12.5 2.5792,10.18025 1.1008,7.63775 1.0336,7.5185 1,7.38425 1,7.25 1,7.11575 1.0343,6.9815 1.1015,6.86225 2.5792,4.31975 5.144,2 7.9986,2 10.8987,2 13.4558,4.3175 14.9034,6.86975 14.9678,6.98675 15,7.11875 15,7.25 15,7.38125 14.9678,7.51325 14.9034,7.63025 L 14.8978,7.64 C 14.1425,6.755 13.0561,6.2 11.85,6.2 11.444,6.2 11.0513,6.263 10.6803,6.38 10.3317,5.14775 9.2628,4.25 8,4.25 c -1.5456,0 -2.8,1.344 -2.8,3 0,1.56 1.1137,2.844 2.5354,2.9865 C 7.7256,10.36475 7.72,10.49375 7.72,10.625 c 0,0.66975 0.1393,1.305 0.3878,1.87425 z m 2.1497,-1.51725 1.0094,0.96375 c 0.0665,0.06375 0.1505,0.09525 0.2331,0.09525 0.0952,0 0.1897,-0.04125 0.259,-0.1215 l 1.7087,-2.00175 c 0.0616,-0.072 0.0917,-0.16275 0.0917,-0.252 0,-0.2055 -0.1547,-0.37425 -0.35,-0.37425 -0.0952,0 -0.1897,0.04125 -0.259,0.1215 l -1.4756,1.728 -0.7511,-0.717 c -0.0672,-0.06375 -0.1498,-0.09525 -0.2331,-0.09525 -0.1939,0 -0.35,0.168 -0.35,0.37425 0,0.10275 0.0392,0.20475 0.1169,0.279 z M 7.9636,9.12425 C 7.0144,9.104 6.25,8.27225 6.25,7.25 6.25,6.215 7.034,5.375 8,5.375 c 0.8351,0 1.5344,0.62775 1.708,1.46625 -0.8001,0.522 -1.4217,1.326 -1.7444,2.283 z"
     fill-rule="nonzero"
     id="path1"
     style="fill:#8da5f3;fill-opacity:1;stroke-width:1" />
</svg>
